# xmcd CD database file
#
# Track frame offsets:
#	150
#	12865
#	29525
#	77320
#	101010
#	123980
#	157355
#	181805
#	231765
#	268940
#	291557
#
# Disc length: 4326 seconds
#
# Revision: 0
# Processed by: cddbd v1.5.1PL0 Copyright (c) Steve Scherf et al.
# Submitted via: CDex 1.51
#
DISCID=9510e40b
DTITLE=Hellborg Lane Sipe - Live at the Bayou
DYEAR=1997
DGENRE=Jazz
TTITLE0=Track01 - Track01
TTITLE1=Track02 - Track02
TTITLE2=Track03 - Track03
TTITLE3=Track04 - Track04
TTITLE4=Track05 - Track05
TTITLE5=Track06 - Track06
TTITLE6=Track07 - Track07
TTITLE7=Track08 - Track08
TTITLE8=Track09 - Track09
TTITLE9=Track10 - Track10
TTITLE10=Track11 - Track11
EXTD=YEAR: 1997
EXTT0=
EXTT1=
EXTT2=
EXTT3=
EXTT4=
EXTT5=
EXTT6=
EXTT7=
EXTT8=
EXTT9=
EXTT10=
PLAYORDER=
